<svg width="100" height="100" viewBox="0 0 100 100" fill="none" xmlns="http://www.w3.org/2000/svg">
<rect x="21.875" y="57.8125" width="34.375" height="10.9375" rx="5.46875" fill="#F6F6F6" stroke="#3C3C3C" stroke-width="4"/>
<rect x="28.125" y="24.2188" width="34.375" height="10.9375" rx="5.46875" stroke="#3C3C3C" stroke-width="4"/>
<rect x="21.875" y="35.1562" width="34.375" height="10.9375" rx="5.46875" stroke="#3C3C3C" stroke-width="4"/>
<rect x="26.5625" y="46.0938" width="34.375" height="10.9375" rx="5.46875" stroke="#3C3C3C" stroke-width="4"/>
<ellipse cx="59.7525" cy="56.646" rx="18.3462" ry="18.3647" fill="#01C246" stroke="#3C3C3C" stroke-width="4"/>
<path d="M59.8483 68.6858C59.3846 68.6858 58.9929 68.5223 58.6731 68.1953C58.3534 67.8683 58.1935 67.4595 58.1935 66.969V65.154L58.913 65.8162C57.8417 65.7672 56.9144 65.6282 56.1309 65.3993C55.3475 65.1704 54.7079 64.9415 54.2122 64.7126C53.7965 64.5164 53.5007 64.2384 53.3249 63.8787C53.165 63.519 53.101 63.1511 53.133 62.775C53.181 62.399 53.3169 62.0556 53.5407 61.7449C53.7646 61.4343 54.0524 61.2299 54.4041 61.1318C54.7719 61.0173 55.1956 61.0664 55.6752 61.2789C55.995 61.4588 56.4747 61.6468 57.1142 61.843C57.7698 62.0229 58.5772 62.1128 59.5365 62.1128C60.2081 62.1128 60.7357 62.0474 61.1194 61.9166C61.5191 61.7858 61.799 61.6141 61.9588 61.4016C62.1347 61.1727 62.2227 60.9274 62.2227 60.6658C62.2227 60.4205 62.1587 60.2161 62.0308 60.0526C61.9189 59.8728 61.727 59.7174 61.4552 59.5866C61.1834 59.4395 60.8076 59.3087 60.328 59.1942L57.6179 58.6056C56.1309 58.2622 55.0197 57.69 54.2842 56.8888C53.5647 56.0712 53.2049 55.0166 53.2049 53.7249C53.2049 52.7439 53.4368 51.8691 53.9005 51.1006C54.3801 50.3158 55.0437 49.6781 55.8911 49.1876C56.7545 48.6971 57.7618 48.3864 58.913 48.2556L58.1935 48.6726V47.0293C58.1935 46.5388 58.3534 46.13 58.6731 45.803C58.9929 45.476 59.3846 45.3125 59.8483 45.3125C60.328 45.3125 60.7277 45.476 61.0475 45.803C61.3673 46.13 61.5271 46.5388 61.5271 47.0293V48.6726L60.8076 48.2066C61.4152 48.2229 62.0708 48.3292 62.7743 48.5254C63.4778 48.7053 64.0934 48.9587 64.621 49.2857C64.9887 49.4819 65.2446 49.7517 65.3885 50.0951C65.5483 50.4384 65.6043 50.79 65.5563 51.1497C65.5244 51.4931 65.3964 51.8037 65.1726 52.0817C64.9647 52.3596 64.6769 52.5477 64.3092 52.6458C63.9574 52.7275 63.5337 52.6621 63.0381 52.4496C62.6703 52.2861 62.2546 52.1553 61.791 52.0572C61.3433 51.9427 60.7677 51.8855 60.0642 51.8855C59.2168 51.8855 58.5612 52.0408 58.0975 52.3515C57.6498 52.6621 57.426 53.0627 57.426 53.5532C57.426 53.8803 57.5539 54.1582 57.8097 54.3871C58.0815 54.5997 58.5692 54.7877 59.2727 54.9512L62.0068 55.5644C63.5257 55.9077 64.645 56.48 65.3645 57.2812C66.1 58.066 66.4677 59.0879 66.4677 60.3469C66.4677 61.328 66.2359 62.1946 65.7722 62.9467C65.3085 63.6988 64.661 64.312 63.8295 64.7862C63.0141 65.2603 62.0628 65.571 60.9755 65.7181L61.5271 65.1295V66.969C61.5271 67.4595 61.3673 67.8683 61.0475 68.1953C60.7437 68.5223 60.344 68.6858 59.8483 68.6858Z" fill="white"/>
</svg>
